<svg xmlns:xlink="http://www.w3.org/1999/xlink" xmlns="http://www.w3.org/2000/svg" width="207" height="194" viewBox="0 0 207 194" fill="none" class="injected-svg hs-image-widget">
<path fill-rule="evenodd" clip-rule="evenodd" d="M30.4934 47.2338C10.8261 51.302 1.14938 65.6019 0.0968149 79.0716C-0.437173 85.8967 1.24296 92.5457 5.0084 97.5145C8.79366 102.511 14.6411 105.741 22.2512 105.741H45.8018V103.539H22.2512C15.3281 103.539 10.1314 100.629 6.7634 96.1856C3.37561 91.7134 1.79346 85.6226 2.29222 79.2434C3.28643 66.5245 12.5492 52.8137 31.8663 49.2079L32.8484 49.0241L32.7614 48.0299C31.4854 33.3876 39.0218 23.636 48.78 17.8854C58.6065 12.0941 70.5447 10.458 77.6682 12.0413L78.277 12.1767L78.7064 11.7242C86.9948 2.9756 99.9779 0.928833 111.891 2.87871C117.826 3.8509 123.426 5.80739 127.939 8.35732C132.471 10.9194 135.805 14.022 137.361 17.2281L137.698 17.9207L138.465 17.8425C146.251 17.0465 154.047 19.2672 160.246 24.0489C166.444 28.8294 170.572 35.8054 171.781 43.5389L171.92 44.4274L172.818 44.4692C178.563 44.7312 186.573 49.0703 193.202 55.891C199.804 62.6831 204.798 71.696 204.798 81.0237C204.798 86.9779 203.646 91.2972 201.849 94.4405C200.059 97.574 197.587 99.612 194.817 100.949C189.531 103.499 183.215 103.484 178.515 103.474C178.223 103.473 177.937 103.473 177.658 103.473V105.675C177.955 105.675 178.265 105.676 178.583 105.676C183.213 105.691 190.011 105.713 195.774 102.931C198.893 101.426 201.723 99.1011 203.761 95.5327C205.794 91.9765 207 87.2565 207 81.0237C207 70.9286 201.623 61.395 194.781 54.3562C188.272 47.6599 180.22 43.0005 173.81 42.3366C172.35 34.3906 168.003 27.2517 161.59 22.3049C155.144 17.3327 147.085 14.9424 138.988 15.5832C137.054 12.093 133.47 8.95516 129.022 6.44047C124.265 3.75181 118.415 1.71605 112.246 0.705329C100.142 -1.27538 86.5302 0.662391 77.5372 9.7655C69.7619 8.26594 57.6376 10.1101 47.6625 15.9884C37.5717 21.9338 29.5476 32.1005 30.4934 47.2338ZM130.597 103.668H158.871V105.87H130.597V103.668ZM64.7016 103.668H116.493V105.87H64.7016V103.668ZM16.4996 133.01V114.183H18.7016V133.01H16.4996ZM120.254 78.3141C118.795 77.0711 117.327 75.8192 116.031 74.5839L117.55 72.9896C118.8 74.1798 120.221 75.392 121.69 76.645C121.83 76.7639 121.969 76.8828 122.11 77.0028C123.716 78.3725 125.358 79.7895 126.81 81.2307C128.258 82.6675 129.56 84.1726 130.458 85.7327C131.348 87.2796 131.877 88.9465 131.698 90.6916V165.974H129.496V90.5705L129.502 90.5089C129.633 89.355 129.302 88.1406 128.549 86.8304C127.793 85.5158 126.648 84.1715 125.259 82.793C123.874 81.4178 122.291 80.0515 120.681 78.6785C120.539 78.5574 120.396 78.4352 120.254 78.3141ZM118.981 180.078C118.981 186.493 124.182 191.693 130.597 191.693C137.012 191.693 142.212 186.493 142.212 180.078C142.212 173.663 137.012 168.462 130.597 168.462C124.182 168.462 118.981 173.663 118.981 180.078ZM130.597 193.895C122.966 193.895 116.779 187.71 116.779 180.078C116.779 172.447 122.966 166.26 130.597 166.26C138.229 166.26 144.414 172.447 144.414 180.078C144.414 187.71 138.229 193.895 130.597 193.895ZM169.385 104.769V133.01H167.183V104.769C167.183 98.3293 167.67 91.8268 169.591 86.3581C171.526 80.8508 174.942 76.3279 180.795 74.018L181.603 76.067C176.491 78.084 173.45 82.0168 171.669 87.088C169.874 92.1956 169.385 98.3943 169.385 104.769ZM155.248 147.147C155.248 154.346 161.085 160.183 168.284 160.183C175.484 160.183 181.32 154.346 181.32 147.147C181.32 139.947 175.484 134.111 168.284 134.111C161.085 134.111 155.248 139.947 155.248 147.147ZM168.284 162.385C159.869 162.385 153.046 155.563 153.046 147.147C153.046 138.732 159.869 131.909 168.284 131.909C176.7 131.909 183.522 138.732 183.522 147.147C183.522 155.563 176.7 162.385 168.284 162.385ZM91.8414 133.01V104.769H94.0434V133.01H91.8414ZM79.9065 147.147C79.9065 154.346 85.743 160.183 92.9424 160.183C100.142 160.183 105.978 154.346 105.978 147.147C105.978 139.947 100.142 134.111 92.9424 134.111C85.743 134.111 79.9065 139.947 79.9065 147.147ZM92.9424 162.385C84.5274 162.385 77.7045 155.563 77.7045 147.147C77.7045 138.732 84.5274 131.909 92.9424 131.909C101.359 131.909 108.18 138.732 108.18 147.147C108.18 155.563 101.359 162.385 92.9424 162.385ZM4.5647 147.147C4.5647 154.346 10.4011 160.183 17.6006 160.183C24.8001 160.183 30.6365 154.346 30.6365 147.147C30.6365 139.947 24.8001 134.111 17.6006 134.111C10.4011 134.111 4.5647 139.947 4.5647 147.147ZM17.6006 162.385C9.18452 162.385 2.36268 155.563 2.36268 147.147C2.36268 138.732 9.18452 131.909 17.6006 131.909C26.0167 131.909 32.8385 138.732 32.8385 147.147C32.8385 155.563 26.0167 162.385 17.6006 162.385ZM52.192 90.2061C50.7453 86.4461 48.3913 83.7586 44.6655 82.2381L45.4979 80.199C49.8656 81.9816 52.6148 85.1745 54.2476 89.4156C55.8605 93.6071 56.389 98.8325 56.389 104.769V165.974H54.187V104.769C54.187 98.915 53.6585 94.0156 52.192 90.2061ZM43.6724 180.078C43.6724 186.493 48.8736 191.693 55.288 191.693C61.7036 191.693 66.9036 186.493 66.9036 180.078C66.9036 173.663 61.7036 168.462 55.288 168.462C48.8736 168.462 43.6724 173.663 43.6724 180.078ZM55.288 193.895C47.657 193.895 41.4704 187.71 41.4704 180.078C41.4704 172.447 47.657 166.26 55.288 166.26C62.9191 166.26 69.1057 172.447 69.1057 180.078C69.1057 187.71 62.9191 193.895 55.288 193.895ZM71.5488 25.9294L75.3285 27.8715H78.6426L82.4234 25.9294L88.9744 28.0576L90.8913 31.8506L93.57 33.7972L97.7736 34.4512L101.821 40.0178L101.148 44.2193C101.505 45.3126 101.815 46.2715 102.17 47.3671L105.189 50.3706L105.186 57.2508L102.167 60.2554L101.145 63.3999L101.818 67.6035L97.7703 73.1702L93.5667 73.8231L90.8868 75.7708L88.9711 79.5627L82.4201 81.6909L78.6393 79.7476H75.3252L71.5444 81.6909L64.9934 79.5627L63.0765 75.7697L60.3978 73.822L56.1931 73.1702L55.9244 72.7992C55.4356 72.1276 55.0249 71.5616 54.6351 71.0255C53.9305 70.0577 53.2985 69.189 52.4155 67.9724L52.148 67.6024L52.8207 63.3999L51.7978 60.2532L48.7833 57.2497V50.3706L51.8011 47.3648C52.05 46.6019 52.2768 45.9049 52.5124 45.1805C52.6137 44.8678 52.7161 44.5507 52.824 44.2204L52.1513 40.0167L56.1975 34.4501L60.4011 33.7972L63.082 31.8495L64.9967 28.0576L71.5488 25.9294ZM66.5491 29.8688L64.8073 33.3171L61.2654 35.8913L57.4405 36.4847L54.47 40.5716L55.0821 44.3965L54.9996 44.6487C54.863 45.0693 54.7331 45.4689 54.6065 45.8598C54.3456 46.6635 54.0945 47.4353 53.8138 48.2996L53.7312 48.5517L50.9853 51.2855V56.3347L53.729 59.0685L55.0777 63.2248L54.4667 67.0486C55.2132 68.077 55.7857 68.8642 56.4155 69.7307C56.7314 70.1645 57.0617 70.6192 57.4361 71.1345L61.2621 71.7279L64.8018 74.302L66.5458 77.7515L71.3528 79.3138L74.7924 77.5456H79.1721L82.6117 79.3138L87.4187 77.7515L89.1616 74.302L92.7024 71.729L96.5273 71.1345L99.4989 67.0486L98.8867 63.2248L100.238 59.0696L102.984 56.3347L102.986 51.2855L100.24 48.5517L100.157 48.2985C99.74 47.0103 99.391 45.9324 98.9726 44.6487L98.8901 44.3965L99.5022 40.5727L96.5317 36.4858L92.7057 35.8913L89.1649 33.3182L87.422 29.8688L82.615 28.3064L79.1754 30.0736H74.7956L71.3572 28.3064L66.5491 29.8688ZM76.9877 44.1224C75.0709 44.1224 73.1981 44.6905 71.6049 45.7552C70.0118 46.8198 68.7698 48.3326 68.0377 50.1031C67.3033 51.8735 67.1117 53.8211 67.4861 55.7006C67.8593 57.58 68.782 59.3053 70.1373 60.6606C71.4915 62.0148 73.2179 62.9375 75.0973 63.3118C76.9767 63.6862 78.9244 63.4935 80.6948 62.7602C82.4653 62.0269 83.978 60.785 85.0427 59.193C86.1074 57.5998 86.6755 55.7259 86.6755 53.8101C86.6755 51.2415 85.6549 48.7763 83.8382 46.9597C82.0204 45.143 79.5564 44.1224 76.9877 44.1224ZM70.3817 43.9242C72.3371 42.6173 74.636 41.9204 76.9877 41.9204C80.141 41.9204 83.1655 43.1733 85.395 45.4029C87.6246 47.6324 88.8775 50.6569 88.8775 53.8101C88.8775 56.1619 88.1795 58.4608 86.8737 60.4162C85.5668 62.3716 83.7094 63.8953 81.5371 64.7949C79.3648 65.6944 76.9745 65.93 74.6679 65.4709C72.3613 65.0129 70.243 63.8799 68.5805 62.2174C66.9168 60.5549 65.785 58.4366 65.3259 56.13C64.8668 53.8233 65.1024 51.4331 66.003 49.2608C66.9025 47.0874 68.4263 45.2311 70.3817 43.9242Z" fill="#1E1E1E"></path>
</svg>