<svg xmlns="http://www.w3.org/2000/svg" xmlns:xlink="http://www.w3.org/1999/xlink" version="1.1" id="Layer_1" x="0px" y="0px" viewBox="0 0 561.5 163.5" style="enable-background:new 0 0 561.5 163.5;" xml:space="preserve" class="injected-svg hs-image-widget" data-pagespeed-url-hash="2018480687" data-pagespeed-onload="pagespeed.CriticalImages.checkImageForCriticality(this);" data-pagespeed-loaded="1" width="561.5" height="163.5">
<path d="M3.6,30h19.3v43h40.8V30h19.4v105.5H63.7V91.6H22.9v43.9H3.6V30z M144.4,101.1c0,8.8-7.2,16-16,16c-8.8,0-16-7.2-16-16V55.7  H94v45.4c0,18.9,15.4,34.4,34.4,34.4c18.9,0,34.4-15.4,34.4-34.4V55.7h-18.3V101.1 M213.9,56.2c-9.1,0-15.5,2.6-21.6,8.7V30h-18.4  v64.7c0,24.2,17.5,40.8,37.2,40.8c21.9,0,41-16.9,41-39.6C252.1,73.4,234.5,56.2,213.9,56.2L213.9,56.2z M214.4,118.5  c-12.5,0-22-10.4-22-22.6c0-12.2,9.5-22.6,22-22.6c10.6,0,20.1,10.4,20.1,22.6C234.5,108,225,118.5,214.4,118.5z M283.1,60.9  c0-9.3,6.2-12.2,12.9-12.2c5.4,0,12.6,4.1,17.3,9.1l12-14.1c-6-8.1-18.2-13.6-28.2-13.6c-20,0-34.3,11.6-34.3,30.8  c0,35.7,43.9,24.4,43.9,44.3c0,6.2-6,11.6-12.9,11.6c-10.9,0-14.4-5.3-19.4-10.9L261,119.7c8.5,10.4,19.1,15.7,31.7,15.7  c18.9,0,34.2-11.7,34.2-30.1C326.9,65.7,283.1,78,283.1,60.9 M375.4,55.2c-19.7,0-37.2,16.6-37.2,40.8v64.9h18.4v-35.1  c6.1,6,12.5,8.7,21.6,8.7c20.5,0,38.2-17.2,38.2-39.6C416.4,72.1,397.2,55.2,375.4,55.2L375.4,55.2z M378.7,117.4  c-12.5,0-22-10.4-22-22.6c0-12.2,9.5-22.6,22-22.6c10.6,0,20.1,10.4,20.1,22.6C398.8,107,389.2,117.4,378.7,117.4z M551.9,118.5  c-10.9,0-13.9-4.7-13.9-11.9V74.7h16.9V58.6h-16.9V37.3l-18.6,8.4v64.9c0,16.6,11.4,25,27.1,25c2.3,0,5.6-0.2,7.3-0.6l4.5-16.7  C556.3,118.3,553.9,118.5,551.9,118.5" fill="#FFFFFF"></path>
<path d="M503.3,75.7c-3.5-6.1-8.5-10.9-14.7-14.6c-4.6-2.7-9.4-4.4-14.9-5.1V36.6c5.4-2.3,8.8-7.4,8.8-13.3  c0-8.1-6.5-14.7-14.6-14.7c-8.1,0-14.7,6.6-14.7,14.7c0,5.9,3.2,11,8.6,13.3v19.3c-4.3,0.6-8.8,2-12.9,4.1  c-8.4-6.4-35.9-27.3-52-39.5c0.4-1.4,0.7-2.8,0.7-4.3c0-9-7.3-16.2-16.2-16.2s-16.2,7.3-16.2,16.2c0,9,7.3,16.2,16.2,16.2  c3.1,0,5.9-0.9,8.3-2.4l3.4,2.6l46.6,33.6c-2.5,2.3-4.8,4.8-6.6,7.7c-3.7,5.9-6,12.4-6,19.4v1.5c0,5,0.9,9.6,2.5,14  c1.4,3.8,3.5,7.3,6,10.5L420.3,135c-4.6-1.7-9.7-0.6-13.2,2.9c-2.4,2.3-3.7,5.5-3.7,8.9c0,3.4,1.3,6.5,3.7,8.9  c2.3,2.4,5.5,3.7,8.9,3.7c3.3,0,6.5-1.3,8.9-3.7c2.4-2.3,3.7-5.5,3.7-8.9c0-1.3-0.2-2.6-0.6-3.8l16-16c2.2,1.5,4.6,2.8,7.1,3.9  c5,2.2,10.6,3.5,16.6,3.5h1.1c6.7,0,13-1.6,19-4.8c6.3-3.4,11.2-8.1,14.9-14c3.7-6,5.8-12.5,5.8-19.8v-0.4  C508.5,88.3,506.8,81.7,503.3,75.7L503.3,75.7z M483.8,109.2c-4.3,4.8-9.3,7.8-15,7.8h-0.9c-3.2,0-6.4-0.9-9.5-2.5  c-3.5-1.8-6.1-4.3-8.3-7.5c-2.2-3.2-3.4-6.6-3.4-10.3v-1.1c0-3.6,0.7-7,2.4-10.2c1.9-3.5,4.4-6.3,7.7-8.4c3.3-2.2,6.8-3.2,10.7-3.2  h0.4c3.5,0,6.9,0.7,10.1,2.3c3.2,1.7,5.9,4.1,7.9,7.2c2,3.1,3.2,6.4,3.5,10.1c0.1,0.8,0.1,1.5,0.1,2.3  C489.5,100.5,487.6,105.1,483.8,109.2L483.8,109.2z" fill="#FFFFFF"></path>
</svg>