<svg xmlns:xlink="http://www.w3.org/1999/xlink" xmlns="http://www.w3.org/2000/svg" width="184" height="192" viewBox="0 0 184 192" fill="none" class="injected-svg hs-image-widget">
<path fill-rule="evenodd" clip-rule="evenodd" d="M63.1915 44.2434H3.68091C1.83906 44.2434 0 45.4867 0 47.4057V148.878C0 150.797 1.83906 152.041 3.68091 152.041H158.944C160.786 152.041 162.625 150.797 162.625 148.878V47.4057C162.625 45.4867 160.786 44.2434 158.944 44.2434H152.403V46.1019H158.944C160.141 46.1019 160.767 46.8574 160.767 47.4057V52.6069H152.403V54.4655H160.767V148.878C160.767 149.427 160.141 150.182 158.944 150.182H3.68091C2.48398 150.182 1.85857 149.427 1.85857 148.878V61.8998H63.1915V60.0412H1.85857V47.4057C1.85857 46.8574 2.48398 46.1019 3.68091 46.1019H63.1915V44.2434ZM63.1915 52.6069H37.1232C36.6102 52.6069 36.1939 53.0233 36.1939 53.5362C36.1939 54.0492 36.6102 54.4655 37.1232 54.4655H63.1915V52.6069ZM9.29287 55.3948C10.3197 55.3948 11.1514 54.5631 11.1514 53.5362C11.1514 52.5094 10.3197 51.6777 9.29287 51.6777C8.26601 51.6777 7.4343 52.5094 7.4343 53.5362C7.4343 54.5631 8.26601 55.3948 9.29287 55.3948ZM17.6565 53.5362C17.6565 54.5631 16.8247 55.3948 15.7979 55.3948C14.771 55.3948 13.9393 54.5631 13.9393 53.5362C13.9393 52.5094 14.771 51.6777 15.7979 51.6777C16.8247 51.6777 17.6565 52.5094 17.6565 53.5362ZM22.3029 55.3948C23.3298 55.3948 24.1615 54.5631 24.1615 53.5362C24.1615 52.5094 23.3298 51.6777 22.3029 51.6777C21.276 51.6777 20.4443 52.5094 20.4443 53.5362C20.4443 54.5631 21.276 55.3948 22.3029 55.3948ZM114.302 168.768C114.815 168.768 115.232 169.184 115.232 169.697V190.141C115.232 190.654 114.815 191.071 114.302 191.071C113.789 191.071 113.373 190.654 113.373 190.141V169.697C113.373 169.184 113.789 168.768 114.302 168.768ZM95.7166 168.768C96.2295 168.768 96.6459 169.184 96.6459 169.697V190.141C96.6459 190.654 96.2295 191.071 95.7166 191.071C95.2036 191.071 94.7873 190.654 94.7873 190.141V169.697C94.7873 169.184 95.2036 168.768 95.7166 168.768ZM130.1 191.071C130.1 191.584 129.684 192 129.171 192H78.9894C78.4764 192 78.0601 191.584 78.0601 191.071C78.0601 190.558 78.4764 190.141 78.9894 190.141H129.171C129.684 190.141 130.1 190.558 130.1 191.071ZM26.02 159.475V165.051C26.02 167.616 28.1007 169.697 30.6665 169.697H178.423C180.989 169.697 183.07 167.616 183.07 165.051V64.6877C183.07 62.1219 180.989 60.0412 178.423 60.0412H169.13V61.8998H178.423C179.963 61.8998 181.211 63.1478 181.211 64.6877V165.051C181.211 166.591 179.963 167.839 178.423 167.839H30.6665C29.1266 167.839 27.8786 166.591 27.8786 165.051V159.475H26.02ZM108.08 0C99.3742 0 90.6715 2.71817 83.3115 8.15542C83.3069 8.15914 83.3013 8.16286 83.2966 8.16657C81.7001 9.39323 80.1863 10.7249 78.7664 12.1523C70.8312 19.8431 66.4301 30.4769 66.6094 41.5261V41.6962C66.6094 44.6299 66.904 47.5563 67.4885 50.4315C68.3091 54.4386 69.7653 58.2905 71.7986 61.8403C71.9212 62.0624 72.0421 62.2799 72.1638 62.4946C72.1731 62.5113 72.1842 62.528 72.1945 62.5447L72.5123 63.0261C75.2927 68.166 77.6819 72.8394 79.6817 77.0407C79.6845 77.0453 79.6864 77.05 79.6892 77.0556C81.2281 80.1519 82.5885 83.3338 83.7659 86.5854C84.5651 89.0434 85.211 91.5487 85.7007 94.0866C85.7016 94.0894 85.7016 94.0912 85.7026 94.094C86.0269 95.7268 86.8558 97.0733 88.1354 97.9422C89.4141 98.8111 91.0748 99.2079 93.0597 99.2256C93.0635 99.2256 93.0662 99.2256 93.07 99.2256H103.489C103.734 99.2256 103.969 99.128 104.141 98.9551C104.315 98.7823 104.412 98.5472 104.412 98.3028C104.412 98.0574 104.315 97.8233 104.141 97.6495C103.969 97.4766 103.734 97.38 103.489 97.38H93.0774C91.3294 97.3642 90.0461 97.0101 89.1707 96.4154C88.2981 95.8225 87.7656 94.9936 87.5147 93.7381L87.5128 93.7335C87.0082 91.1157 86.3401 88.5332 85.5149 85.999C85.5121 85.9888 85.5093 85.9795 85.5056 85.9702C84.3059 82.6536 82.9184 79.4067 81.3498 76.248L81.3433 76.2359C79.3258 71.9974 76.9227 67.298 74.1302 62.134C74.1172 62.1117 74.1032 62.0903 74.0893 62.0689L73.7715 61.5857C73.7677 61.5801 73.7659 61.5727 73.7622 61.5671C73.6423 61.3552 73.5233 61.1462 73.4062 60.9343C73.4044 60.9315 73.4016 60.9278 73.3988 60.925C71.4631 57.5461 70.0803 53.8782 69.2988 50.0635V50.0607C68.7384 47.3072 68.455 44.5063 68.455 41.6962V41.5094C68.455 41.5038 68.455 41.4992 68.455 41.4945C68.284 30.9546 72.4797 20.8151 80.0497 13.4784C80.0534 13.4747 80.0581 13.4709 80.0618 13.4672C81.4269 12.0928 82.8831 10.8123 84.4192 9.63299L84.422 9.6302C98.4905 -0.753651 117.675 -0.752721 131.743 9.63299C133.278 10.8132 134.735 12.0937 136.101 13.4672C136.104 13.4709 136.109 13.4747 136.113 13.4784C143.682 20.8151 147.878 30.9546 147.707 41.4945C147.707 41.4992 147.707 41.5038 147.707 41.5094V41.6962C147.707 44.5073 147.425 47.3091 146.864 50.0635C146.082 53.8782 144.698 57.5452 142.764 60.925C142.761 60.9278 142.758 60.9315 142.756 60.9343C142.638 61.1462 142.52 61.3552 142.4 61.5671C142.397 61.5727 142.394 61.5801 142.391 61.5857L142.073 62.0689C142.059 62.0912 142.047 62.1135 142.035 62.1368C139.243 67.3008 136.838 71.9974 134.822 76.2331L134.814 76.248C133.245 79.4067 131.857 82.6527 130.657 85.9702C130.653 85.9795 130.65 85.9888 130.647 85.999C129.821 88.5341 129.154 91.1157 128.65 93.7335C128.399 94.9917 127.863 95.8216 126.989 96.4154C126.114 97.0101 124.832 97.3633 123.085 97.38H112.675C112.431 97.38 112.196 97.4766 112.023 97.6495C111.85 97.8233 111.752 98.0574 111.752 98.3028C111.752 98.5472 111.85 98.7823 112.023 98.9551C112.196 99.128 112.431 99.2256 112.675 99.2256H123.102C125.087 99.207 126.748 98.8111 128.027 97.9422C129.306 97.0733 130.135 95.7268 130.46 94.094C130.46 94.0912 130.461 94.0894 130.462 94.0866C130.951 91.5487 131.597 89.0434 132.396 86.5854C133.574 83.3338 134.936 80.1519 136.475 77.0556C136.477 77.05 136.479 77.0453 136.481 77.0407C138.477 72.8459 140.867 68.1781 143.643 63.0428L143.967 62.5447C143.978 62.528 143.988 62.5113 143.999 62.4946C144.119 62.2799 144.241 62.0624 144.364 61.8403C146.397 58.2905 147.852 54.4414 148.674 50.4333V50.4315C149.259 47.5563 149.554 44.6309 149.553 41.6962V41.5261C149.732 30.4825 145.336 19.8542 137.408 12.1644L137.401 12.1569C135.979 10.7277 134.464 9.39509 132.866 8.16657C132.86 8.16286 132.856 8.15914 132.851 8.15542C125.491 2.71817 116.785 0 108.08 0ZM112.774 105.836C112.71 105.84 112.646 105.852 112.584 105.871L103.354 108.517C103.119 108.585 102.92 108.743 102.802 108.958C102.683 109.172 102.655 109.424 102.722 109.66C102.79 109.895 102.948 110.094 103.162 110.212C103.377 110.331 103.629 110.359 103.864 110.292L113.093 107.645C113.329 107.578 113.527 107.419 113.646 107.205C113.765 106.991 113.793 106.739 113.726 106.504C113.672 106.315 113.56 106.149 113.405 106.029C113.25 105.909 113.061 105.841 112.866 105.836C112.835 105.834 112.804 105.834 112.774 105.836ZM92.0821 106.691C91.8368 106.691 91.6026 106.788 91.4288 106.961C91.256 107.135 91.1584 107.369 91.1584 107.614V116.786C91.1593 117.031 91.2569 117.265 91.4307 117.437L100.845 126.854C101.018 127.028 101.252 127.126 101.497 127.126H114.685C114.93 127.126 115.164 127.028 115.337 126.854L124.773 117.44C124.858 117.354 124.926 117.252 124.972 117.139C125.019 117.027 125.042 116.907 125.042 116.786V107.621C125.042 107.376 124.945 107.141 124.772 106.968C124.599 106.796 124.364 106.698 124.118 106.698C123.874 106.698 123.639 106.796 123.466 106.968C123.293 107.141 123.196 107.376 123.196 107.621V116.403L114.302 125.28H101.879L93.0049 116.403V107.614C93.0049 107.369 92.9073 107.135 92.7345 106.961C92.5616 106.788 92.3265 106.691 92.0821 106.691ZM112.774 113.63C112.71 113.635 112.646 113.647 112.584 113.666L103.354 116.31C103.119 116.377 102.92 116.535 102.802 116.75C102.683 116.964 102.655 117.217 102.722 117.452C102.79 117.687 102.948 117.886 103.162 118.004C103.377 118.123 103.629 118.151 103.864 118.084L113.093 115.44C113.329 115.372 113.527 115.214 113.646 115C113.765 114.786 113.793 114.534 113.726 114.299C113.672 114.11 113.56 113.944 113.405 113.824C113.25 113.704 113.061 113.636 112.866 113.63C112.835 113.629 112.804 113.629 112.774 113.63ZM103.077 18.149L106.615 19.9676H109.784L113.324 18.149L119.402 20.1246L121.197 23.6754L123.758 25.5368L127.694 26.1483L131.45 31.3133L130.819 35.2479C131.161 36.2952 131.457 37.2087 131.796 38.2569L134.622 41.0698L134.619 47.4522L131.793 50.2661L130.816 53.2732L131.446 57.2088L127.691 62.3728L123.755 62.9852L121.193 64.8466L119.399 68.3974L113.321 70.3721L109.78 68.5535H106.612L103.072 70.3721L96.9943 68.3974L95.1999 64.8466L92.6378 62.9843L88.7014 62.3728L88.4746 62.0606C88.0146 61.4287 87.6281 60.8962 87.2619 60.3925C86.5993 59.4818 86.0046 58.665 85.1738 57.5201L84.948 57.2078L85.5771 53.2732L84.6004 50.2651L81.7773 47.4522V41.0698L84.6032 38.256C84.8402 37.5283 85.0558 36.8648 85.2797 36.1753C85.3773 35.8742 85.4768 35.5675 85.5808 35.2488L84.9508 31.3133L88.7051 26.1483L92.6416 25.5368L95.2045 23.6745L96.9971 20.1246L103.077 18.149ZM98.3074 21.6524L96.6607 24.9133L93.371 27.3043L89.7543 27.8656L86.9079 31.7816L87.4868 35.3965L87.418 35.6103C87.2889 36.0062 87.1671 36.3816 87.0472 36.7496C86.8019 37.506 86.5659 38.2309 86.301 39.044L86.2323 39.2568L83.6358 41.8421V46.68L86.2295 49.2643L87.4831 53.1255L86.9051 56.7404C87.6197 57.7255 88.1643 58.4735 88.7646 59.2987C89.0684 59.7169 89.3872 60.1555 89.7505 60.6555L93.3673 61.2168L96.6561 63.6078L98.3037 66.8687L102.91 68.3658L106.163 66.6949H110.23L113.482 68.3658L118.088 66.8687L119.737 63.6078L123.026 61.2177L126.642 60.6555L129.489 56.7404L128.91 53.1246L130.164 49.2652L132.762 46.68L132.764 41.8421L130.167 39.2577L130.097 39.044C129.705 37.8322 129.376 36.8184 128.983 35.6103L128.913 35.3975L129.492 31.7825L126.645 27.8665L123.029 27.3043L119.741 24.9142L118.092 21.6524L113.485 20.1562L110.234 21.8262H106.165L102.915 20.1562L98.3074 21.6524ZM108.202 35.0416C106.378 35.0416 104.596 35.5824 103.079 36.5953C101.564 37.6082 100.382 39.0486 99.6837 40.7325C98.9858 42.4173 98.8037 44.2712 99.1596 46.0592C99.5155 47.8481 100.393 49.4901 101.683 50.78C102.972 52.0689 104.614 52.9471 106.402 53.303C108.191 53.6589 110.045 53.4758 111.729 52.7789C113.414 52.081 114.854 50.8989 115.867 49.3832C116.88 47.8666 117.42 46.0843 117.42 44.261C117.42 41.8161 116.449 39.4705 114.72 37.7421C112.991 36.0136 110.646 35.0416 108.202 35.0416ZM102.047 35.0499C103.868 33.8326 106.01 33.183 108.202 33.183C111.139 33.183 113.958 34.3502 116.035 36.4281C118.112 38.505 119.279 41.3226 119.279 44.261C119.279 46.4523 118.629 48.5933 117.413 50.4157C116.195 52.2371 114.465 53.657 112.441 54.4953C110.416 55.3344 108.189 55.5528 106.04 55.1262C103.892 54.6988 101.918 53.6431 100.369 52.094C98.8195 50.5449 97.7638 48.5711 97.3363 46.4225C96.9088 44.2731 97.1282 42.0456 97.9673 40.0216C98.8055 37.9976 100.225 36.2673 102.047 35.0499ZM13.8371 105.1L32.2165 113.414V114.836L12.0807 105.702V104.497L32.2165 95.3876V96.7852L13.8371 105.1ZM37.8935 124.162H36.4745L51.1015 86.0613H52.5205L37.8935 124.162ZM75.2546 105.051L57.0192 96.7369V95.3151L77.1308 104.425V105.63L57.0192 114.763V113.341L75.2546 105.051Z" fill="#1E1E1E"></path>
</svg>