<svg xmlns:xlink="http://www.w3.org/1999/xlink" xmlns="http://www.w3.org/2000/svg" width="256" height="180" viewBox="0 0 256 180" fill="none" class="injected-svg hs-image-widget" data-pagespeed-url-hash="4040341103" data-pagespeed-onload="pagespeed.CriticalImages.checkImageForCriticality(this);">
<path fill-rule="evenodd" clip-rule="evenodd" d="M139 5.80004C126.3 5.80004 114.8 11.1 106.6 19.7C97.5 7.80004 83.2 0.100037 67 0.100037C39.5 0.100037 17.3 22.3 17.3 49.7C17.3 56.7 18.8 63.4 21.4 69.4C8.69999 76.9 0.0999908 90.8 0.0999908 106.8C0.0999908 130.6 19.2 149.9 42.8 149.9C45.8 149.9 48.8 149.6 51.6 149C58.1 166.6 75 179.1 94.8 179.1C113.8 179.1 130.1 167.6 137.1 151.1C142.4 153.7 148.4 155.2 154.7 155.2C169.8 155.2 183 146.9 189.9 134.6C193.5 135.3 197.1 135.7 200.8 135.7C231.2 135.7 255.9 110.8 255.9 80.1C255.9 49.4 231.2 24.5 200.8 24.5C192.9 24.5 185.3 26.2 178.5 29.2C170.6 15.2 155.9 5.80004 139 5.80004ZM152.5 63.1C152.333 63.0667 152.178 63.0334 152.022 63C151.711 62.9334 151.4 62.8667 151 62.8C150.4 62.7 149.8 62.6 149 62.6C146.3 62.6 144.2 63.4 142.7 64.9C141.2 66.4 140.2 68.6 139.7 71.6L139.5 72.6H136.1C136.1 72.6 135.7 72.6 135.6 73L135 76.1C135 76.4 135.1 76.6 135.5 76.6H138.8L135.5 95.2C135.2 96.7 134.9 97.9 134.6 98.9C134.3 99.8 134 100.5 133.6 101C133.2 101.5 132.9 101.8 132.2 102C131.7 102.2 131.1 102.3 130.5 102.3C130.3 102.3 130.1 102.275 129.9 102.25C129.7 102.225 129.5 102.2 129.3 102.2C129.21 102.17 129.13 102.149 129.053 102.129C128.872 102.082 128.71 102.04 128.5 101.9C128.5 101.9 128.1 101.8 128 102.1C127.95 102.25 127.7 102.924 127.45 103.599L127.45 103.601C127.2 104.276 126.95 104.95 126.9 105.1C126.8 105.4 126.9 105.6 127.1 105.7C127.5 105.9 127.9 106 128.5 106.1C129.3 106.3 130 106.3 130.7 106.3C132.1 106.3 133.3 106.1 134.3 105.7C135.3 105.3 136.2 104.7 137 103.8C137.9 102.8 138.4 101.8 138.9 100.5C139.4 99.2 139.9 97.5 140.2 95.5L143.5 76.6H148.4C148.4 76.6 148.8 76.6 148.9 76.2L149.5 73.1C149.5 72.8 149.4 72.6 149 72.6H144.3C144.3 72.5 144.5 70.8 145.1 69.3C145.259 68.7433 145.608 68.3131 145.895 67.9591L145.926 67.9206C145.988 67.8436 146.047 67.7703 146.1 67.7C146.5 67.3 146.9 67.1 147.3 66.9C147.8 66.7 148.3 66.7 148.9 66.7C149.114 66.7 149.357 66.7287 149.583 66.7554C149.778 66.7785 149.961 66.8 150.1 66.8C150.216 66.8233 150.311 66.8411 150.39 66.8561C150.652 66.9054 150.746 66.9233 150.9 67C151.4 67.1 151.5 67 151.5 66.8L152.6 63.7C152.85 63.3667 152.683 63.2417 152.563 63.1514C152.539 63.1334 152.517 63.1167 152.5 63.1ZM63.6 91.4C63 90.9 62.9 90.8 62.7 90.5C62.4 90 62.3 89.4 62.3 88.6C62.3 87.3 62.7 86.4 63.6 85.7C63.6 85.7 64.9 84.6 67.9 84.6C70 84.6 71.9 84.9 71.9 84.9V91.6C71.9 91.6 70 92 67.9 92.1C65 92.5 63.6 91.4 63.6 91.4ZM69.5 81C69.2303 81 68.9202 80.9798 68.5788 80.9576C68.1606 80.9303 67.6954 80.9 67.2 80.9C65.9 80.9 64.7 81.1 63.5 81.4C62.3 81.7 61.3 82.2 60.4 82.8C59.5 83.4 58.8 84.3 58.3 85.2C57.8 86.2 57.5 87.3 57.5 88.6C57.5 89.9 57.7 91.1 58.2 92C58.7 92.9 59.3 93.7 60.1 94.3C60.9 94.9 61.9 95.3 63.1 95.6C64.3 95.9 65.6 96 67 96C68.5 96 70 95.9 71.5 95.6C72.6934 95.4409 74.0133 95.1552 74.7549 94.9947C74.9451 94.9535 75.0979 94.9205 75.2 94.9C75.7 94.8 76.2 94.6 76.2 94.6C76.6 94.5 76.5 94.1 76.5 94.1V80.5C76.5 77.5 75.7 75.3 74.1 74C72.5 72.6 70.3 71.9 67.3 71.9C66.2 71.9 64.4 72.1 63.3 72.3C63.3 72.3 60.1 72.9 58.7 74C58.7 74 58.4 74.2 58.6 74.6L59.6 77.4C59.7 77.8 60.1 77.6 60.1 77.6C60.1 77.6 60.2 77.6 60.3 77.5C63.2 75.9 66.8 76 66.8 76C68.4 76 69.6 76.3 70.5 77C71.3 77.6 71.7 78.6 71.7 80.5V81.1C70.7 81.1 69.5 81 69.5 81ZM37.2457 93.5079C37.1699 93.419 37.0568 93.2864 37.2 93L38.3 90.2C38.5 89.7 38.9 89.9 39 90C39.1685 90.0562 39.3054 90.1439 39.4639 90.2454C39.5877 90.3247 39.7246 90.4124 39.9 90.5C43 92.4 45.8 92.4 46.7 92.4C49 92.4 50.4 91.2 50.4 89.6V89.5C50.4 87.7941 48.4238 87.166 46.089 86.424C45.9603 86.3831 45.8306 86.3418 45.7 86.3L45.1 86.1C41.6 85.1 37.9 83.7 37.9 79.3V79.2C37.9 75 41.3 72.1 46.1 72.1H46.6C49.4 72.1 52.1 72.9 54.1 74.1C54.3 74.2 54.5 74.4 54.4 74.7C54.35 74.85 54.1 75.5 53.85 76.15C53.6 76.8 53.35 77.45 53.3 77.6C53.1 78.1 52.6 77.8 52.6 77.8C50.8 76.9 48.2 76.1 45.9 76.1C43.9 76.1 42.6 77.1 42.6 78.6V78.7C42.6 80.4 44.8 81.2 47.4 82L47.8 82.1C51.2 83.2 54.9 84.7 54.9 88.9V89C54.9 93.5 51.6 96.3 46.4 96.3C43.9 96.3 41.4 95.9 38.8 94.5L37.3 93.6C37.3 93.5716 37.2758 93.5432 37.2457 93.5079ZM114.046 93.5079C113.97 93.419 113.857 93.2864 114 93L115.1 90.2C115.3 89.8 115.7 89.9 115.8 90C115.968 90.0562 116.105 90.1439 116.264 90.2453C116.388 90.3246 116.525 90.4123 116.7 90.5C119.8 92.4 122.6 92.4 123.5 92.4C125.8 92.4 127.2 91.2 127.2 89.6V89.5C127.2 87.7941 125.224 87.166 122.889 86.424L122.867 86.4169C122.745 86.3783 122.623 86.3394 122.5 86.3L121.9 86.1C118.4 85.1 114.7 83.7 114.7 79.3V79.2C114.7 75 118.1 72.1 122.9 72.1H123.4C126.2 72.1 128.9 72.9 130.9 74.1C131.1 74.2 131.3 74.4 131.2 74.7C131.15 74.85 130.9 75.5 130.65 76.15C130.4 76.8 130.15 77.45 130.1 77.6C129.9 78.1 129.4 77.8 129.4 77.8C127.6 76.9 125 76.1 122.7 76.1C120.7 76.1 119.4 77.1 119.4 78.6V78.7C119.4 80.4 121.6 81.2 124.2 82L124.6 82.1C128 83.2 131.7 84.7 131.7 88.9V89C131.7 93.5 128.4 96.3 123.2 96.3C120.7 96.3 118.2 95.9 115.6 94.5L114.1 93.6C114.1 93.5716 114.076 93.5432 114.046 93.5079ZM166.4 84.2C166.4 86.7 165.9 88.7 165 90.2C164.1 91.6 162.7 92.3 160.7 92.3C158.8 92.3 157.4 91.6 156.5 90.2C155.6 88.8 155.1 86.8 155.1 84.2C155.1 81.7 155.6 79.7 156.5 78.3C157.4 76.9 158.8 76.2 160.7 76.2C162.6 76.2 164 76.9 165 78.3C165.9 79.6 166.4 81.6 166.4 84.2ZM170.8 79.5C170.4 78 169.7 76.8 168.8 75.7C167.9 74.6 166.8 73.8 165.4 73.1C164.1 72.5 162.5 72.2 160.7 72.2C158.9 72.2 157.3 72.5 156 73.1C154.7 73.7 153.5 74.6 152.6 75.7C151.7 76.8 151 78.1 150.6 79.5C150.2 80.9 150 82.5 150 84.2C150 85.9 150.2 87.5 150.6 88.9C151 90.3 151.7 91.6 152.6 92.7C153.5 93.8 154.6 94.6 156 95.2C157.3 95.8 158.9 96.1 160.7 96.1C162.5 96.1 164.1 95.8 165.4 95.2C166.7 94.6 167.9 93.7 168.8 92.7C169.7 91.6 170.4 90.4 170.8 88.9C171.2 87.5 171.4 85.9 171.4 84.2C171.4 82.5 171.2 80.9 170.8 79.5ZM206.1 91.2C206.1 91.2 206.6 91.1 206.7 91.5L207.8 94.6C207.9 94.9 207.6 95.1 207.6 95.1C205.9 95.7 203.6 96.2 201.4 96.2C197.6 96.2 194.7 95.1 192.8 92.9C190.9 90.8 189.9 87.8 189.9 84.2C189.9 82.5 190.1 80.9 190.6 79.5C191 78.1 191.8 76.8 192.7 75.7C193.6 74.6 194.8 73.7 196.2 73.1C197.6 72.5 199.3 72.2 201.1 72.2C202.3 72.2 203.5 72.3 204.4 72.4C205.4 72.5 206.7 72.9 207.3 73.1C207.4 73.1 207.7 73.3 207.6 73.6C207.347 74.3588 207.134 74.9177 206.911 75.5043L206.91 75.506C206.78 75.8462 206.647 76.1966 206.5 76.6C206.3 77 206 76.9 206 76.9C204.6 76.4 203.2 76.2 201.4 76.2C199.2 76.2 197.6 76.9 196.5 78.3C195.4 79.8 194.8 81.6 194.8 84.1C194.8 86.8 195.5 88.9 196.7 90.1C197.9 91.4 199.6 92 201.7 92C202.6 92 203.4 91.9 204.1 91.8C204.63 91.7243 205.16 91.5339 205.647 91.359L205.648 91.3585C205.804 91.3027 205.955 91.2484 206.1 91.2ZM214.4 81.7C214.6 80.3 215 79.1 215.6 78.2C216.5 76.8 217.9 76.1 219.8 76.1C221.7 76.1 223 76.9 224 78.2C224.6 79.1 224.9 80.3 225 81.7H214.4ZM229.1 78.6C228.7 77.2 227.8 75.8 227.2 75.1C226.2 74.1 225.3 73.4 224.4 73C223.2 72.5 221.7 72.1 220.2 72.1C218.3 72.1 216.7 72.4 215.3 73.1C213.9 73.7 212.8 74.6 211.9 75.7C211 76.8 210.3 78.1 209.9 79.5C209.5 81 209.2 82.6 209.2 84.2C209.2 85.9 209.4 87.5 209.9 88.9C210.4 90.3 211.1 91.6 212 92.7C213 93.8 214.2 94.6 215.7 95.2C217.2 95.8 219 96.1 221.1 96.1C225.4 96.1 227.6 95.1 228.6 94.6C228.8 94.5 228.9 94.3 228.7 93.9L227.7 91.2C227.6 90.8 227.1 90.9 227.1 90.9C226.997 90.9374 226.891 90.9773 226.78 91.019C225.703 91.4246 224.173 92 221 92C218.7 92 217 91.3 215.9 90.3C214.8 89.2 214.3 87.6 214.2 85.4H229C229 85.4 229.4 85.4 229.4 85C229.6 84.9 230.1 82 229.1 78.6ZM96.9 78.2C96.3 79.1 95.9 80.3 95.7 81.7H106.3C106.2 80.3 105.9 79.1 105.3 78.2C104.3 76.9 103 76.1 101.1 76.1C99.2 76.1 97.8 76.8 96.9 78.2ZM108.5 75.1C109.1 75.8 110 77.2 110.4 78.6C111.4 82 110.9 84.9 110.7 85C110.7 85.4 110.3 85.4 110.3 85.4H95.5C95.6 87.6 96.1 89.2 97.2 90.3C98.3 91.3 100 92 102.3 92C105.473 92 107.003 91.4246 108.08 91.019L108.081 91.0186L108.083 91.0181C108.193 90.9767 108.298 90.9371 108.4 90.9C108.4 90.9 108.9 90.8 109 91.2L110 93.9C110.2 94.3 110.1 94.5 109.9 94.6C108.9 95.1 106.7 96.1 102.4 96.1C100.3 96.1 98.5 95.8 97 95.2C95.5 94.6 94.3 93.8 93.3 92.7C92.4 91.6 91.7 90.3 91.2 88.9C90.7 87.5 90.5 85.9 90.5 84.2C90.5 82.6 90.8 81 91.2 79.5C91.6 78.1 92.3 76.8 93.2 75.7C94.1 74.6 95.2 73.7 96.6 73.1C98 72.4 99.7 72.1 101.5 72.1C103 72.1 104.5 72.5 105.7 73C106.6 73.4 107.5 74.1 108.5 75.1ZM188.9 72.9C189 72.9 189.2 73.1 189.1 73.4C189.053 73.589 188.849 74.135 188.627 74.7323L188.626 74.7341C188.378 75.4005 188.105 76.1312 188 76.5C187.9 76.8 187.8 76.9 187.5 76.9C187.5 76.9 186.7 76.7 185.9 76.7C185.3 76.7 184.6 76.8 183.9 77C183.3 77.2 182.6 77.6 182.1 78.1C181.6 78.6 181.1 79.4 180.8 80.3C180.5 81.2 180.3 82.7 180.3 84.2V95.2C180.3 95.5 180.1 95.7 179.9 95.7H176C175.7 95.7 175.5 95.4 175.5 95.2V73.1C175.5 72.8 175.7 72.6 175.9 72.6H179.7C179.9 72.6 180.1 72.8 180.1 73.1V74.9C180.7 74.2 181.7 73.5 182.6 73.1C183.5 72.7 184.5 72.4 186.4 72.5C187.4 72.5 188.6 72.8 188.9 72.9ZM85.9 95.6C86.1 95.6 86.3 95.4 86.3 95.2V63.6C86.3 63.4 86.1 63.2 85.9 63.2H82C81.8 63.2 81.6 63.4 81.6 63.6V95.2C81.6 95.4 81.8 95.6 82 95.6H85.9Z" fill="#FFFFFF"></path>
</svg>