<svg xmlns:xlink="http://www.w3.org/1999/xlink" xmlns="http://www.w3.org/2000/svg" width="349" height="269" viewBox="0 0 349 269" fill="none" class="injected-svg hs-image-widget">
<path fill-rule="evenodd" clip-rule="evenodd" d="M314.346 194.962C329.73 198.727 341.822 210.581 346 225.8C335.5 238.1 320.1 245.3 303.9 245.3H303.5C287.1 245.3 271.6 238.2 260.9 225.8C265.368 210.708 277.328 199.067 292.376 194.891C299.227 198.474 307.449 198.498 314.346 194.962ZM292.757 192.003L293.1 191.9L293.9 192.4C296.8 193.9 300.1 194.7 303.4 194.7C306.6 194.6 309.9 193.9 312.8 192.5L313.7 192.1L313.969 192.16C320.488 188.488 324.9 181.5 324.9 173.5C324.9 161.7 315.3 152.1 303.5 152.1C291.7 152.1 282.1 161.6 282.1 173.5C282.1 181.387 286.389 188.291 292.757 192.003ZM56.434 194.959C71.823 198.72 83.921 210.577 88.1 225.8C77.6 238.2 62.2 245.3 46 245.3H45.6C29.2 245.3 13.7 238.2 3 225.8C7.479 210.671 19.387 199.01 34.585 194.86C41.41 198.402 49.576 198.451 56.434 194.959ZM34.823 191.983L35.1 191.9L36.1 192.4C39 193.9 42.2 194.7 45.5 194.7C48.8 194.6 52.1 193.8 55 192.4L55.9 192L56.184 192.095C62.64 188.406 67 181.453 67 173.5C67 161.7 57.4 152.1 45.6 152.1C33.8 152.1 24.2 161.6 24.2 173.5C24.2 181.373 28.474 188.267 34.823 191.983ZM314.477 52.194C329.798 55.994 341.834 67.8249 346 82.9999C335.5 95.2999 320.1 102.5 303.9 102.5H303.5C287.1 102.5 271.6 95.3999 260.9 82.9999C265.356 68.0479 277.263 56.332 292.254 52.125C299.172 55.797 307.512 55.82 314.477 52.194ZM292.871 49.269L293.1 49.2L293.9 49.7C296.8 51.2 300.1 52 303.4 52C306.6 51.9 309.9 51.1999 312.8 49.7999L313.7 49.4L313.841 49.431C320.43 45.779 324.9 38.7519 324.9 30.6999C324.9 18.8999 315.3 9.29995 303.5 9.29995C291.7 9.29995 282.1 18.8999 282.1 30.6999C282.1 38.6339 286.44 45.573 292.871 49.269ZM186.51 52.178C201.863 55.959 213.928 67.8019 218.1 82.9999C207.6 95.2999 192.2 102.5 176 102.5H175.6C159.2 102.5 143.7 95.3999 133 82.9999C137.45 68.0689 149.232 56.365 164.288 52.143C171.21 55.802 179.549 55.814 186.51 52.178ZM164.871 49.269L165.1 49.2L165.9 49.7C168.8 51.2 172.1 52 175.4 52C178.6 51.9 181.9 51.1999 184.8 49.7999L185.7 49.4L185.841 49.431C192.43 45.779 196.9 38.7519 196.9 30.6999C196.9 18.8999 187.3 9.29995 175.5 9.29995C163.7 9.29995 154.2 18.8999 154.1 30.6999C154.1 38.6339 158.44 45.573 164.871 49.269ZM56.565 52.191C71.892 55.988 83.933 67.8209 88.1 82.9999C77.6 95.3999 62.2 102.5 46 102.6H45.6C29.2 102.6 13.7 95.4999 3 83.0999C7.467 68.0119 19.324 56.274 34.463 52.094C41.356 55.724 49.639 55.773 56.565 52.191ZM34.936 49.249L35.1 49.2L36.1 49.7C39 51.2 42.2 52 45.5 52C48.8 51.9 52.1 51.1 55 49.7L55.9 49.2L56.184 49.2949C62.64 45.6059 67 38.6529 67 30.6999C67 18.8999 57.4 9.29995 45.6 9.29995C33.8 9.29995 24.2 18.8999 24.2 30.6999C24.2 38.6199 28.525 45.549 34.936 49.249ZM289.37 193.045C274.477 198.027 262.926 209.918 258.4 225.1L258 226.4L258.9 227.5C270.1 240.5 286.3 248 303.5 248H303.9C320.9 247.9 337 240.5 348 227.5L348.9 226.4L348.5 225.1C344.264 209.757 332.497 197.781 317.445 193.107C318.44 192.385 319.396 191.585 320.3 190.7C329.8 181.4 329.9 166.2 320.6 156.7C316.1 152 310 149.4 303.5 149.4C290.2 149.4 279.4 160.2 279.4 173.5C279.3 179.8 281.8 185.9 286.3 190.4C287.264 191.384 288.29 192.268 289.37 193.045ZM31.532 192.989C16.561 197.94 4.943 209.858 0.4 225L0 226.4L0.9 227.5C12.1 240.5 28.3 248 45.5 248H46C63 247.9 79.1 240.5 90.1 227.5L91 226.4L90.6 225.1C86.358 209.733 74.65 197.744 59.575 193.085C60.558 192.369 61.504 191.577 62.4 190.7C71.9 181.4 72.1 166.2 62.8 156.7C58.3 152 52.1 149.4 45.6 149.4C32.3 149.4 21.5 160.2 21.5 173.5C21.5 179.8 23.9 185.9 28.4 190.3C29.382 191.303 30.429 192.202 31.532 192.989ZM289.37 50.345C274.477 55.326 262.926 67.2179 258.4 82.3999L258 83.6999L258.9 84.7999C270.1 97.7999 286.3 105.3 303.5 105.3H303.9C320.9 105.2 337 97.7999 348 84.7999L348.9 83.6999L348.5 82.3999C344.264 67.0569 332.497 55.081 317.445 50.407C318.44 49.685 319.396 48.885 320.3 48C329.8 38.7 329.9 23.4999 320.6 13.9999C316.1 9.29995 310 6.69995 303.5 6.69995C290.2 6.69995 279.4 17.4999 279.4 30.7999C279.3 37.0999 281.8 43.2 286.3 47.7C287.264 48.684 288.29 49.568 289.37 50.345ZM161.37 50.345C146.477 55.326 134.926 67.2179 130.4 82.3999L130 83.6999L130.9 84.7999C142.1 97.7999 158.3 105.3 175.5 105.3H175.9C192.9 105.2 209 97.7999 220 84.7999L220.9 83.6999L220.5 82.3999C216.264 67.0569 204.497 55.081 189.445 50.407C190.44 49.685 191.396 48.885 192.3 48C201.8 38.7 201.9 23.4999 192.6 13.9999C188.2 9.29995 182 6.69995 175.5 6.69995C162.2 6.69995 151.4 17.4999 151.4 30.7999C151.3 37.0999 153.8 43.2 158.3 47.7C159.264 48.684 160.29 49.568 161.37 50.345ZM31.518 50.2799C16.554 55.1579 4.941 67.162 0.4 82.2999L0 83.5999L1 84.6999C12.2 97.6999 28.4 105.2 45.6 105.2H46C63 105.1 79.1 97.6999 90.1 84.6999L91 83.5999L90.6 82.2999C86.366 66.9649 74.698 54.9929 59.667 50.3139C60.618 49.6189 61.533 48.849 62.4 48C71.9 38.7 72.1 23.4999 62.8 13.9999C58.3 9.29995 52.1 6.59995 45.6 6.69995C32.3 6.69995 21.5 17.4999 21.5 30.7999C21.5 37.0999 23.9 43.1999 28.4 47.5999C29.377 48.5979 30.42 49.4939 31.518 50.2799ZM217.724 226.005C207.228 238.18 191.91 245.3 175.8 245.3H175.4C159.145 245.3 143.587 238.239 132.988 225.903L133.5 224.4C138.1 210.7 148.8 200 162.6 195.6L164.665 194.952C171.395 198.373 179.399 198.42 186.161 195.046L188.2 195.7C202 199.9 212.8 210.6 217.2 224.4L217.724 226.005ZM185.69 192.12L185.6 192.1L184.7 192.5C181.8 193.9 178.6 194.7 175.3 194.7C172 194.7 168.7 193.9 165.8 192.4L165 191.9L164.803 191.959L163.3 190.9C153.6 184.2 151.3 170.9 158 161.3C164.7 151.6 178 149.3 187.6 156C193.3 160 196.7 166.5 196.7 173.5C196.7 180.5 193.3 187 187.5 190.9L185.69 192.12ZM130.932 223.153C135.85 208.849 147.106 197.727 161.432 192.989C160.329 192.202 159.282 191.303 158.3 190.3C153.8 185.9 151.4 179.8 151.4 173.5C151.4 160.2 162.2 149.4 175.5 149.4C182 149.4 188.2 152 192.7 156.7C193.361 157.375 193.974 158.079 194.523 158.816C194.629 158.924 194.718 159.041 194.798 159.162C195.207 159.695 195.582 160.245 195.917 160.814C195.985 160.89 196.036 160.973 196.076 161.061C196.461 161.673 196.805 162.303 197.103 162.949C197.137 162.982 197.156 163.021 197.163 163.065C199.396 167.66 200.057 172.813 199.162 177.741C199.164 177.788 199.156 177.834 199.134 177.877C198.994 178.708 198.797 179.529 198.539 180.337C198.506 180.509 198.454 180.677 198.384 180.84C198.157 181.604 197.875 182.354 197.538 183.085C197.515 183.181 197.475 183.271 197.423 183.358C196.232 186.031 194.52 188.527 192.3 190.7C191.385 191.596 190.417 192.403 189.41 193.128C203.895 197.648 215.329 208.935 219.92 223.473C227.408 213.678 231.5 201.689 231.5 189.4C231.5 158.4 206.5 133.2 175.5 133.2C144.5 133.2 119.4 158.3 119.5 189.4C119.5 201.554 123.503 213.513 130.932 223.153ZM215.089 232.536C204.46 242.395 190.465 247.914 175.8 248H175.4C158.799 248 143.13 241.014 131.989 228.839L131.9 229.1L128.8 225.1C121 214.9 116.7 202.3 116.7 189.4C116.7 156.9 143 130.5 175.5 130.5C208 130.6 234.2 156.9 234.1 189.6C234 202.5 229.8 215 221.9 225.3L218.8 229.3L218.671 228.906C218.134 229.501 217.585 230.084 217.025 230.653L250.64 264.268L248.731 266.177L215.089 232.536Z" fill="#FFFFFF"></path>
</svg>